<svg xmlns="http://www.w3.org/2000/svg" viewBox="0 0 800 445" role="img" aria-label="Picture Retell">
<rect width="800" height="445" rx="24" fill="#ffffff"/>
<text x="400" y="48" text-anchor="middle" font-family="Arial,Helvetica,sans-serif" font-size="25" font-weight="800" fill="#24313A">PICTURE RETELL</text><text x="400" y="78" text-anchor="middle" font-family="Arial,Helvetica,sans-serif" font-size="13" fill="#667985">Pictures cue vocabulary, sequence, and oral language</text>
<rect x="70" y="140" width="145" height="120" rx="18" fill="#2A7F8E" opacity="0.10" stroke="#2A7F8E" stroke-width="3"/><text x="142.5" y="198.0" text-anchor="middle" font-family="Arial" font-size="16" font-weight="800" fill="#2A7F8E">1</text><text x="142.5" y="222.0" text-anchor="middle" font-family="Arial" font-size="12" fill="#667985">picture</text><rect x="245" y="140" width="145" height="120" rx="18" fill="#D6844B" opacity="0.10" stroke="#D6844B" stroke-width="3"/><text x="317.5" y="198.0" text-anchor="middle" font-family="Arial" font-size="16" font-weight="800" fill="#D6844B">2</text><text x="317.5" y="222.0" text-anchor="middle" font-family="Arial" font-size="12" fill="#667985">picture</text><rect x="420" y="140" width="145" height="120" rx="18" fill="#7566A8" opacity="0.10" stroke="#7566A8" stroke-width="3"/><text x="492.5" y="198.0" text-anchor="middle" font-family="Arial" font-size="16" font-weight="800" fill="#7566A8">3</text><text x="492.5" y="222.0" text-anchor="middle" font-family="Arial" font-size="12" fill="#667985">picture</text><rect x="595" y="140" width="145" height="120" rx="18" fill="#638B67" opacity="0.10" stroke="#638B67" stroke-width="3"/><text x="667.5" y="198.0" text-anchor="middle" font-family="Arial" font-size="16" font-weight="800" fill="#638B67">4</text><text x="667.5" y="222.0" text-anchor="middle" font-family="Arial" font-size="12" fill="#667985">picture</text><line x1="215" y1="200" x2="245" y2="200" stroke="#667985" stroke-width="4" stroke-linecap="round"/><polygon points="245,200 235.57422371294157,205.6705150900361 235.57422371294157,194.3294849099639" fill="#667985"/><line x1="390" y1="200" x2="420" y2="200" stroke="#667985" stroke-width="4" stroke-linecap="round"/><polygon points="420,200 410.5742237129416,205.6705150900361 410.5742237129416,194.3294849099639" fill="#667985"/><line x1="565" y1="200" x2="595" y2="200" stroke="#667985" stroke-width="4" stroke-linecap="round"/><polygon points="595,200 585.5742237129416,205.6705150900361 585.5742237129416,194.3294849099639" fill="#667985"/><text x="400" y="325" text-anchor="middle" font-family="Arial" font-size="14" font-weight="800" fill="#24313A">SEQUENCE -> RETELL -> WRITE</text></svg>