<svg xmlns="http://www.w3.org/2000/svg" viewBox="0 0 800 445" role="img"><rect width="800" height="445" rx="24" fill="#ffffff"/><text x="400" y="54" text-anchor="middle" font-family="Arial,Helvetica,sans-serif" font-size="25" font-weight="800" fill="#24313A">TRIPLE ENTRY JOURNAL</text><rect x="65" y="115" width="205" height="260" rx="18" fill="#2A7F8E" opacity=".08" stroke="#2A7F8E" stroke-width="3"/><text x="167.5" y="155" text-anchor="middle" font-family="Arial" font-size="14" font-weight="800" fill="#2A7F8E">SOURCE</text><line x1="90" y1="205" x2="245" y2="205" stroke="#B8C4CA" stroke-width="3"/><line x1="90" y1="255" x2="245" y2="255" stroke="#B8C4CA" stroke-width="3"/><line x1="90" y1="305" x2="245" y2="305" stroke="#B8C4CA" stroke-width="3"/><line x1="90" y1="355" x2="245" y2="355" stroke="#B8C4CA" stroke-width="3"/><rect x="300" y="115" width="205" height="260" rx="18" fill="#D6844B" opacity=".08" stroke="#D6844B" stroke-width="3"/><text x="402.5" y="155" text-anchor="middle" font-family="Arial" font-size="14" font-weight="800" fill="#D6844B">THINK</text><line x1="325" y1="205" x2="480" y2="205" stroke="#B8C4CA" stroke-width="3"/><line x1="325" y1="255" x2="480" y2="255" stroke="#B8C4CA" stroke-width="3"/><line x1="325" y1="305" x2="480" y2="305" stroke="#B8C4CA" stroke-width="3"/><line x1="325" y1="355" x2="480" y2="355" stroke="#B8C4CA" stroke-width="3"/><rect x="535" y="115" width="205" height="260" rx="18" fill="#7566A8" opacity=".08" stroke="#7566A8" stroke-width="3"/><text x="637.5" y="155" text-anchor="middle" font-family="Arial" font-size="14" font-weight="800" fill="#7566A8">REVISE</text><line x1="560" y1="205" x2="715" y2="205" stroke="#B8C4CA" stroke-width="3"/><line x1="560" y1="255" x2="715" y2="255" stroke="#B8C4CA" stroke-width="3"/><line x1="560" y1="305" x2="715" y2="305" stroke="#B8C4CA" stroke-width="3"/><line x1="560" y1="355" x2="715" y2="355" stroke="#B8C4CA" stroke-width="3"/></svg>